<?xml version="1.0" standalone="no"?>
<!DOCTYPE svg PUBLIC "-//W3C//DTD SVG 20010904//EN"
 "http://www.w3.org/TR/2001/REC-SVG-20010904/DTD/svg10.dtd">
<svg version="1.0" xmlns="http://www.w3.org/2000/svg"
 width="300.000000pt" height="168.000000pt" viewBox="0 0 300.000000 168.000000"
 preserveAspectRatio="xMidYMid meet">
<metadata>
Created by potrace 1.16, written by Peter Selinger 2001-2019
</metadata>
<g transform="translate(0.000000,168.000000) scale(0.100000,-0.100000)"
fill="#000000" stroke="none">
<path d="M0 840 l0 -840 1500 0 1500 0 0 840 0 840 -1500 0 -1500 0 0 -840z
m970 315 c13 -16 8 -18 -27 -9 -13 4 -23 10 -23 15 0 15 37 10 50 -6z m-42
-23 c2 -7 -6 -12 -17 -12 -21 0 -27 11 -14 24 9 9 26 2 31 -12z m344 -35 c-12
-7 -19 -16 -16 -20 4 -4 2 -7 -4 -7 -7 0 -12 9 -12 20 0 15 7 20 28 20 l27 -1
-23 -12z m-112 -17 c0 -5 -6 -10 -14 -10 -8 0 -18 5 -21 10 -3 6 3 10 14 10
12 0 21 -4 21 -10z m-523 -26 c-9 -9 -28 6 -21 18 4 6 10 6 17 -1 6 -6 8 -13
4 -17z m-116 6 c10 -6 19 -18 19 -26 0 -32 33 -76 67 -90 47 -20 101 -10 152
26 24 18 46 27 59 23 17 -4 19 -9 11 -36 -5 -18 -9 -48 -10 -67 0 -19 -3 -29
-6 -22 -2 6 -14 12 -24 12 -11 0 -17 -5 -14 -10 4 -6 -17 -1 -47 10 -112 45
-132 50 -189 52 -33 2 -59 6 -59 11 0 4 -4 7 -10 7 -17 0 -50 34 -50 52 0 20
48 68 68 68 7 0 22 -5 33 -10z m94 -48 c-3 -3 -11 0 -18 7 -9 10 -8 11 6 5 10
-3 15 -9 12 -12z m42 -8 c-3 -3 -12 -4 -19 -1 -8 3 -5 6 6 6 11 1 17 -2 13 -5z
m508 -54 c3 -5 1 -10 -4 -10 -6 0 -11 5 -11 10 0 6 2 10 4 10 3 0 8 -4 11 -10z
m-308 -126 c-7 -7 -37 7 -37 17 0 6 9 5 21 -1 11 -7 19 -14 16 -16z m178 -5
c-4 -6 3 -13 15 -16 18 -5 21 -12 18 -47 -3 -35 -6 -41 -25 -40 -13 0 -23 -3
-23 -8 0 -20 -56 9 -99 52 l-47 47 46 -5 c27 -2 59 2 80 11 44 19 42 19 35 6z"/>
</g>
</svg>
